<?xml version="1.0" encoding="UTF-8"?>
<svg id="Layer_2" data-name="Layer 2" xmlns="http://www.w3.org/2000/svg" viewBox="0 0 1080 595.04">
  <defs>
    <style>
      .cls-1 {
        fill: #c0272d;
      }

      .cls-1, .cls-2, .cls-3, .cls-4 {
        stroke-width: 0px;
      }

      .cls-2 {
        fill: #8dc63e;
      }

      .cls-3 {
        fill: #fff;
      }

      .cls-4 {
        fill: #fbb13b;
      }
    </style>
  </defs>
  <g id="Layer_1-2" data-name="Layer 1">
    <g id="Layer-1">
      <path class="cls-1" d="M851,124.5h0c0,22.91-18.59,41.5-41.5,41.5h-124.5V41.5c0-22.91,18.55-41.5,41.5-41.5h0c22.92,0,41.5,18.59,41.5,41.5v41.5h41.5c22.91,0,41.5,18.59,41.5,41.5Z"/>
      <path class="cls-4" d="M851,326.5h0c0,22.91-18.59,41.5-41.5,41.5h-124.5v-124.5c0-22.91,18.55-41.5,41.5-41.5h0c22.92,0,41.5,18.59,41.5,41.5v41.5h41.5c22.91,0,41.5,18.59,41.5,41.5Z"/>
      <path class="cls-2" d="M1046,326.5h0c0,22.91-18.59,41.5-41.5,41.5h-124.5v-124.5c0-22.91,18.55-41.5,41.5-41.5h0c22.92,0,41.5,18.59,41.5,41.5v41.5h41.5c22.91,0,41.5,18.59,41.5,41.5Z"/>
      <rect class="cls-3" x="73" y="56" width="11" height="26" rx="4.98" ry="4.98"/>
      <path class="cls-3" d="M581.29,1H28.71C15.06,1,4,12.06,4,25.71v116.58c0,13.65,11.06,24.71,24.71,24.71h552.58c13.65,0,24.71-11.06,24.71-24.71V25.71c0-13.65-11.06-24.71-24.71-24.71ZM120,103.02c0,2.74-2.24,4.98-4.98,4.98h-38.04c-2.74,0-4.98,2.24-4.98,4.98v22.04c0,2.74-2.24,4.98-4.98,4.98h-26.04c-2.74,0-4.98-2.24-4.98-4.98V34.98c0-2.74,2.24-4.98,4.98-4.98h74c2.74,0,4.98,2.25,4.98,5h.04v68.02ZM165,135.02c0,2.74-2.24,4.98-4.98,4.98h-25.04c-2.74,0-4.98-2.24-4.98-4.98V34.98c0-2.74,2.24-4.98,4.98-4.98h25.04c2.74,0,4.98,2.24,4.98,4.98v100.04ZM273,46.59c0,9.64-1.24,12.75-5.95,19.14l-12.66,17.12,12.66,16.8c4.86,6.35,5.95,9.49,5.95,19.1v16.65c0,3.9-1.72,5.6-5.62,5.6h-23.76c-3.9,0-5.62-1.7-5.62-5.6v-15.4c0-2.17.14-4.38-1.4-6.55l-6.74-9.81c-1.22-1.88-2.01-2.64-3.69-2.64h-2.16c-1.68,0-2.47.8-3.69,2.64l-6.92,9.81c-1.54,2.17-1.4,4.35-1.4,6.55v15.43c0,3.9-1.69,5.61-5.52,5.61l.03-.04h-23c-3.83,0-5.51-1.68-5.51-5.55v-16.51c0-9.56,1.22-12.64,5.84-18.94l12.42-16.79-12.42-16.79c-4.77-6.34-5.84-9.42-5.84-18.98v-11.89c0-3.87,1.68-5.55,5.51-5.55h24.11c3.74,0,5.38,1.68,5.38,5.55v10.64c0,2.15,0,4.48,1.36,6.49l6.57,9.7c1.04,1.69,1.95,2.62,3.59,2.62h1.78c1.64,0,2.41-.93,3.6-2.62l6.74-9.7c1.36-2.01,1.36-4.34,1.36-6.49v-11.59c0-3.9,1.72-5.6,5.62-5.6h23.76c3.9,0,5.62,1.7,5.62,5.6v11.99ZM373,54.02c0,2.74-2.24,4.98-4.98,4.98h-37.04c-2.74,0-4.98,2.24-4.98,4.98v1.04c0,2.74,2.24,4.98,4.98,4.98h37.04c2.74,0,4.98,2.24,4.98,4.98v20.04c0,2.74-2.24,4.98-4.98,4.98h-37.04c-2.74,0-4.98,2.24-4.98,4.98v1.04c0,2.74,2.24,4.98,4.98,4.98h37.04c2.74,0,4.98,2.24,4.98,4.98v19.04c0,2.74-2.24,4.98-4.98,4.98h-73.04c-2.74,0-4.98-2.24-4.98-4.98V34.98c0-2.74,2.24-4.98,4.98-4.98h73.04c2.74,0,4.98,2.24,4.98,4.98v19.04ZM465,135.02c0,2.74-2.24,4.98-4.98,4.98h-72.04c-2.74,0-4.98-2.24-4.98-4.98V34.98c0-2.74,2.24-4.98,4.98-4.98h25.08c2.74,0,4.98,2.25,4.98,5h-.04v71.02c0,2.74,2.24,4.98,4.98,4.98h37.04c2.74,0,4.98,2.24,4.98,4.98v19.04ZM465,54.99c0,.72-.18,1.48-.47,2.13l-10.99,23c-.84,1.73-2.58,2.84-4.54,2.84v.04h-2.75c-3.5,0-5.92-3.53-4.62-6.78l5.16-13.19c1.04-2.63-.9-5.52-3.75-5.52-1.12,0-2.13-.45-2.86-1.18-.73-.73-1.18-1.73-1.18-2.85v-15.5c0-2.74,2.24-4.98,4.98-4.98h16.04c2.74,0,4.98,2.24,4.98,4.98v17.01ZM574,54.02c0,2.74-2.24,4.98-4.98,4.98h-41.04c-2.74,0-4.98,2.24-4.98,4.98v1.04c0,2.74,2.24,4.98,4.98,4.98h41.04c2.74,0,4.98,2.24,4.98,4.98v60.04c0,2.74-2.24,4.98-4.98,4.98h-76.04c-2.74,0-4.98-2.24-4.98-4.98v-19.04c0-2.74,2.24-4.98,4.98-4.98h41.04c2.74,0,4.98-2.24,4.98-4.98v-1.04c0-2.74-2.24-4.98-4.98-4.98h-41.04c-2.74,0-4.98-2.24-4.98-4.98v-60.04c0-2.74,2.24-4.98,4.98-4.98h76.04c2.74,0,4.98,2.24,4.98,4.98v19.04Z"/>
      <g>
        <path class="cls-3" d="M14,378.04c-6.25,0-9-2.84-9-9.31v-167.38c0-5.16,4.18-9.34,9.34-9.34h40.32c5.16,0,9.34,4.18,9.34,9.34v128.66h36v-42.66c0-5.16,4.18-9.34,9.34-9.34h37.32c5.16,0,9.34,4.18,9.34,9.34v81.32c0,5.16-4.18,9.34-9.34,9.34H14v.04Z"/>
        <path class="cls-3" d="M181,369.66v-31.32c0-5.16,4.18-9.34,9.34-9.34h25.66v-87h-25.66c-5.16,0-9.34-4.18-9.34-9.34v-31.32c0-5.16,4.18-9.34,9.34-9.34h110.32c5.16,0,9.34,4.18,9.34,9.34v31.32c0,5.16-4.18,9.34-9.34,9.34h-24.66v87h24.66c5.16,0,9.34,4.18,9.34,9.34v31.32c0,5.16-4.18,9.34-9.34,9.34h-110.32c-5.16,0-9.34-4.18-9.34-9.34Z"/>
        <path class="cls-3" d="M351,377.96c-6.25,0-9-2.85-9-9.34v-167.28c0-5.16,4.18-9.34,9.34-9.34h115.32c5.16,0,9.34,4.18,9.34,9.34v31.32c0,5.16-4.18,9.34-9.34,9.34h-65.66v26h44.66c5.16,0,9.34,4.18,9.34,9.34v31.32c0,5.16-4.18,9.34-9.34,9.34h-44.66v50.66c0,5.16-4.18,9.34-9.34,9.34h-40.66v-.04Z"/>
        <path class="cls-3" d="M512,378.96c-6.25,0-9-2.85-9-9.36v-168.27c0-5.16,4.18-9.34,9.34-9.34h119.32c5.16,0,9.34,4.18,9.34,9.34v30.32c0,5.16-4.18,9.34-9.34,9.34h-71.66v20h50.66c5.16,0,9.34,4.18,9.34,9.34v27.32c0,5.16-4.18,9.34-9.34,9.34h-50.66v23h71.66c5.16,0,9.34,4.18,9.34,9.34v30.32c0,5.16-4.18,9.34-9.34,9.34h-119.66v-.04Z"/>
        <path class="cls-3" d="M10,594.96c-6.25,0-9-2.85-9-9.33v-30.29c0-5.16,4.18-9.34,9.34-9.34h68.94c4.41,0,6.76-3.36,6.76-7.52,0-5.97-2.35-8.32-6.76-8.82l-38.99-5.46c-24.45-3.65-40.29-14.03-40.29-43.14v-27.3c0-29.62,20.04-45.75,53.82-45.75h72.84c5.16,0,9.34,4.18,9.34,9.34v31.32c0,5.16-4.18,9.34-9.34,9.34h-58.12c-4.26,0-6.77,3.1-6.77,7.78s2.51,7.78,6.77,8.29l37.36,5.19c23.58,3.64,39.1,13.98,39.1,42.98v27.2c0,29.5-19.57,45.57-51.91,45.57H10v-.04Z"/>
        <path class="cls-3" d="M198,594.96c-6.25,0-9-2.85-9-9.36v-168.27c0-5.16,4.18-9.34,9.34-9.34h120.32c5.16,0,9.34,4.18,9.34,9.34v30.32c0,5.16-4.18,9.34-9.34,9.34h-71.66v20h50.66c5.16,0,9.34,4.18,9.34,9.34v27.32c0,5.16-4.18,9.34-9.34,9.34h-50.66v23h71.66c5.16,0,9.34,4.18,9.34,9.34v30.32c0,5.16-4.18,9.34-9.34,9.34h-120.66v-.04Z"/>
        <path class="cls-3" d="M506.33,492.92c10.99-4.66,14.67-15.03,14.67-29.6v-11.96c0-25.69-12.3-43.36-51.55-43.36h-86.11c-5.16,0-9.34,4.18-9.34,9.34v168.34c0,6.5,2.75,9.36,9,9.36v-.04h40.66c5.16,0,9.34-4.18,9.34-9.34v-50.66h36.18c7.23,0,9.82,3.35,9.82,11.12v39.54c0,5.16,4.18,9.34,9.34,9.34h40.32c5.16,0,9.34-4.18,9.34-9.34v-55.09c0-21.82-12.56-35.56-31.67-37.65ZM464,475.88c0,6.95-2.32,12.12-11.46,12.12h-19.54v-33h19.54c9.1,0,11.46,5.17,11.46,12.12v8.76Z"/>
        <path class="cls-3" d="M578,585.66v-31.32c0-5.16,4.18-9.34,9.34-9.34h25.66v-87h-25.66c-5.16,0-9.34-4.18-9.34-9.34v-31.32c0-5.16,4.18-9.34,9.34-9.34h110.32c5.16,0,9.34,4.18,9.34,9.34v31.32c0,5.16-4.18,9.34-9.34,9.34h-24.66v87h24.66c5.16,0,9.34,4.18,9.34,9.34v31.32c0,5.16-4.18,9.34-9.34,9.34h-110.32c-5.16,0-9.34-4.18-9.34-9.34Z"/>
        <path class="cls-3" d="M764,594.96c-6.25,0-9-2.85-9-9.36v-168.27c0-5.16,4.18-9.34,9.34-9.34h120.32c5.16,0,9.34,4.18,9.34,9.34v30.32c0,5.16-4.18,9.34-9.34,9.34h-71.66v20h50.66c5.16,0,9.34,4.18,9.34,9.34v27.32c0,5.16-4.18,9.34-9.34,9.34h-50.66v23h71.66c5.16,0,9.34,4.18,9.34,9.34v30.32c0,5.16-4.18,9.34-9.34,9.34h-120.66v-.04Z"/>
        <path class="cls-3" d="M944.34,594.96c-6.49,0-9.34-2.85-9.34-9.33v-30.54s3.26-9.34,9.75-9.09h69.76c4.4-.25,6.75-3.61,6.75-7.76,0-5.95-2.34-8.3-6.75-8.8l-38.88-5.45c-24.38-3.64-39.63-43.03-39.63-43.03v-26.9c0-29.83,19.89-46.07,53.43-46.07h72.23c5.16,0,9.34,4.18,9.34,9.34v31.32c0,5.16-4.18,9.34-9.34,9.34h-60.74c-4.4,0-7,3.1-7,7.78s2.6,7.78,7,8.29l38.64,5.19c24.39,3.64,40.44,13.98,40.44,42.98v27.2c0,29.5-20.24,45.57-53.69,45.57h-81.93l-.04-.04Z"/>
      </g>
    </g>
  </g>
</svg>