<?xml version="1.0" encoding="utf-8"?>
<!-- Generator: Adobe Illustrator 28.2.0, SVG Export Plug-In . SVG Version: 6.00 Build 0)  -->
<svg version="1.1" id="Layer_2_00000029019418879211854980000013084121625475414205_"
	 xmlns="http://www.w3.org/2000/svg" xmlns:xlink="http://www.w3.org/1999/xlink" x="0px" y="0px" viewBox="0 0 240.8 165"
	 style="enable-background:new 0 0 240.8 165;" xml:space="preserve">
<style type="text/css">
	.st0{fill:#C1272D;}
	.st1{fill:#FFFFFF;}
</style>
<g id="Layer_1-2">
	<g id="white">
		<path class="st0" d="M239.9,152.2L239.9,152.2c0,7-5.7,12.8-12.8,12.8h-38.2v-38.2c0-7,5.7-12.8,12.8-12.8l0,0
			c7,0,12.8,5.7,12.8,12.8v12.8h12.8C234.2,139.5,239.9,145.2,239.9,152.2z"/>
		<path class="st1" d="M24.1,16.8v4.4c0,0.8-0.6,1.4-1.4,1.4h-0.4c-0.8,0-1.4-0.6-1.4-1.4v-4.4c0-0.8,0.6-1.4,1.4-1.4h0.4
			C23.5,15.4,24.1,16,24.1,16.8z"/>
		<path class="st1" d="M162.1,0H8.8C5,0,1.9,3.1,1.9,6.8v32.3C1.9,42.9,5,46,8.8,46h153.3c3.8,0,6.8-3.1,6.8-6.8V6.8
			C168.9,3.1,165.8,0,162.1,0z M34.2,28.5c0,0.8-0.6,1.4-1.4,1.4H22.2c-0.8,0-1.4,0.6-1.4,1.4v6c0,0.8-0.6,1.4-1.4,1.4h-7.2
			c-0.8,0-1.4-0.6-1.4-1.4V9.6c0-0.8,0.6-1.4,1.4-1.4h20.5c0.8,0,1.4,0.6,1.4,1.4h0V28.5z M46.4,37.2c0,0.8-0.6,1.4-1.4,1.4h-6.8
			c-0.8,0-1.4-0.6-1.4-1.4V9.6c0-0.8,0.6-1.4,1.4-1.4H45c0.8,0,1.4,0.6,1.4,1.4V37.2z M76.5,12.9c0,2.7-0.3,3.5-1.6,5.3l-3.5,4.7
			l3.5,4.7c1.3,1.8,1.6,2.6,1.6,5.3v4.6c0,1.1-0.5,1.5-1.5,1.5h-6.5c-1.1,0-1.5-0.5-1.5-1.5v-4.3c0-0.6,0-1.2-0.4-1.8l-1.9-2.7
			c-0.3-0.5-0.6-0.7-1-0.7H63c-0.5,0-0.7,0.2-1,0.7l-1.9,2.7c-0.4,0.6-0.4,1.2-0.4,1.8v4.3c0,1.1-0.5,1.5-1.5,1.5l0,0h-6.5
			c-1.1,0-1.5-0.5-1.5-1.5v-4.6c0-2.7,0.3-3.5,1.6-5.3l3.5-4.7l-3.5-4.7c-1.3-1.8-1.6-2.6-1.6-5.3V9.5c0-1.1,0.5-1.5,1.5-1.5h6.6
			c1.1,0,1.5,0.5,1.5,1.5v3c0,0.6,0,1.2,0.4,1.8L62,17c0.3,0.5,0.6,0.7,1,0.7h0.5c0.5,0,0.7-0.3,1-0.7l1.9-2.7
			c0.4-0.6,0.4-1.2,0.4-1.8v-3c0-1.1,0.5-1.5,1.5-1.5H75c1.1,0,1.5,0.5,1.5,1.5V12.9z M104.2,14.8c0,0.8-0.6,1.4-1.4,1.4H92.6
			c-0.8,0-1.4,0.6-1.4,1.4V18c0,0.8,0.6,1.4,1.4,1.4h10.2c0.8,0,1.4,0.6,1.4,1.4v5.4c0,0.8-0.6,1.4-1.4,1.4H92.6
			c-0.8,0-1.4,0.6-1.4,1.4v0.3c0,0.8,0.6,1.4,1.4,1.4h10.2c0.8,0,1.4,0.6,1.4,1.4v5.3c0,0.8-0.6,1.4-1.4,1.4H82.5
			c-0.8,0-1.4-0.6-1.4-1.4V9.6c0-0.8,0.6-1.4,1.4-1.4h20.3c0.8,0,1.4,0.6,1.4,1.4V14.8z M129.8,37.2c0,0.8-0.6,1.4-1.4,1.4h-20
			c-0.8,0-1.4-0.6-1.4-1.4V9.6c0-0.8,0.6-1.4,1.4-1.4h7c0.8,0,1.4,0.6,1.4,1.4h0v19.6c0,0.8,0.6,1.4,1.4,1.4h10.3
			c0.8,0,1.4,0.6,1.4,1.4V37.2z M129.8,15c0,0.2,0,0.4-0.1,0.6l-3,6.4c-0.2,0.5-0.7,0.8-1.2,0.8v0h-0.8c-1,0-1.6-1-1.3-1.9l1.4-3.7
			c0.3-0.7-0.2-1.5-1-1.5c-0.6,0-1.1-0.5-1.1-1.1v-4.3c0-0.8,0.6-1.4,1.4-1.4h4.5c0.8,0,1.4,0.6,1.4,1.4V15z M159.9,14.8
			c0,0.8-0.6,1.4-1.4,1.4h-11.4c-0.8,0-1.4,0.6-1.4,1.4V18c0,0.8,0.6,1.4,1.4,1.4h11.4c0.8,0,1.4,0.6,1.4,1.4v16.5
			c0,0.8-0.6,1.4-1.4,1.4h-21.2c-0.8,0-1.4-0.6-1.4-1.4V32c0-0.8,0.6-1.4,1.4-1.4h11.4c0.8,0,1.4-0.6,1.4-1.4v-0.4
			c0-0.8-0.6-1.4-1.4-1.4h-11.4c-0.8,0-1.4-0.6-1.4-1.4V9.6c0-0.8,0.6-1.4,1.4-1.4h21.2c0.8,0,1.4,0.6,1.4,1.4V14.8z"/>
		<g>
			<path class="st1" d="M15.4,104.9c-1.8,0-2.5-0.8-2.5-2.5V67.9H2.5c-1.8,0-2.5-0.8-2.5-2.5v-8.5c0-1.8,0.8-2.5,2.5-2.5h37.1
				c1.8,0,2.5,0.8,2.5,2.5v8.5c0,1.8-0.8,2.5-2.5,2.5H29.3v34.5c0,1.8-0.8,2.5-2.5,2.5C26.8,104.9,15.4,104.9,15.4,104.9z"/>
			<path class="st1" d="M51.6,104.9c-1.8,0-2.5-0.8-2.5-2.5V56.8c0-1.8,0.8-2.5,2.5-2.5h10.9c1.8,0,2.5,0.8,2.5,2.5v15.3h11.8V56.8
				c0-1.8,0.8-2.5,2.5-2.5h10.9c1.8,0,2.5,0.8,2.5,2.5v45.6c0,1.8-0.8,2.5-2.5,2.5H79.3c-1.8,0-2.5-0.8-2.5-2.5V86.8H65v15.6
				c0,1.8-0.8,2.5-2.5,2.5C62.5,104.9,51.6,104.9,51.6,104.9z"/>
			<path class="st1" d="M101.3,102.4V94c0-1.8,0.8-2.5,2.5-2.5h7V67.9h-7c-1.8,0-2.5-0.8-2.5-2.5v-8.5c0-1.8,0.8-2.5,2.5-2.5h30
				c1.8,0,2.5,0.8,2.5,2.5v8.5c0,1.8-0.8,2.5-2.5,2.5H127v23.6h6.8c1.8,0,2.5,0.8,2.5,2.5v8.4c0,1.8-0.8,2.5-2.5,2.5h-30
				C102.1,104.9,101.3,104.2,101.3,102.4z"/>
			<path class="st1" d="M180.8,77.3c3-1.3,3.9-4.1,3.9-8V66c0-7-3.3-11.8-13.9-11.8h-23.4c-1.8,0-2.5,0.8-2.5,2.5v45.6
				c0,1.8,0.8,2.5,2.5,2.5l0,0h10.8c1.8,0,2.5-0.8,2.5-2.5V88.6h9.8c2,0,2.7,0.9,2.7,3v10.8c0,1.8,0.8,2.5,2.5,2.5h10.9
				c1.8,0,2.5-0.8,2.5-2.5V87.5C189.4,81.6,186,77.9,180.8,77.3z M169.2,72.7c0,1.9-0.6,3.3-3.1,3.3h-5.3v-9h5.3
				c2.5,0,3.1,1.4,3.1,3.3V72.7z"/>
			<path class="st1" d="M223.5,54.3h-23.7c-1.8,0-2.5,0.8-2.5,2.5v45.6c0,1.8,0.8,2.5,2.5,2.5v0h23.7c11.8,0,17.3-4.6,17.3-14.4
				V68.7C240.8,58.9,235.3,54.3,223.5,54.3z M224.9,88.2c0,2.4-1.1,3.5-3.3,3.5h-8.4V67.7h8.4c2.3,0,3.3,1.1,3.3,3.4V88.2z"/>
			<path class="st1" d="M5.4,164.9c-1.8,0-2.5-0.8-2.5-2.5v-45.6c0-1.8,0.8-2.5,2.5-2.5h10.9c1.8,0,2.5,0.8,2.5,2.5v34.8h9.6v-11.4
				c0-1.8,0.8-2.5,2.5-2.5h10.2c1.8,0,2.5,0.8,2.5,2.5v22.2c0,1.8-0.8,2.5-2.5,2.5H5.4z"/>
			<path class="st1" d="M50.7,162.4V154c0-1.8,0.8-2.5,2.5-2.5h7v-23.6h-7c-1.8,0-2.5-0.8-2.5-2.5v-8.5c0-1.8,0.8-2.5,2.5-2.5h30
				c1.8,0,2.5,0.8,2.5,2.5v8.5c0,1.8-0.8,2.5-2.5,2.5h-6.8v23.6h6.8c1.8,0,2.5,0.8,2.5,2.5v8.4c0,1.8-0.8,2.5-2.5,2.5h-30
				C51.4,164.9,50.7,164.2,50.7,162.4z"/>
			<path class="st1" d="M96.9,164.9c-1.8,0-2.5-0.8-2.5-2.5v-45.6c0-1.8,0.8-2.5,2.5-2.5h31.4c1.8,0,2.5,0.8,2.5,2.5v8.4
				c0,1.8-0.8,2.5-2.5,2.5h-17.9v7.3h12.2c1.8,0,2.5,0.8,2.5,2.5v8.4c0,1.8-0.8,2.5-2.5,2.5h-12.2v13.9c0,1.8-0.8,2.5-2.5,2.5
				C107.8,164.9,96.9,164.9,96.9,164.9z"/>
			<path class="st1" d="M140.3,164.9c-1.8,0-2.5-0.8-2.5-2.5v-45.6c0-1.8,0.8-2.5,2.5-2.5H173c1.8,0,2.5,0.8,2.5,2.5v8.2
				c0,1.8-0.8,2.5-2.5,2.5h-19.4v5.4h13.7c1.8,0,2.5,0.8,2.5,2.5v7.5c0,1.8-0.8,2.5-2.5,2.5h-13.7v6.1H173c1.8,0,2.5,0.8,2.5,2.5
				v8.2c0,1.8-0.8,2.5-2.5,2.5L140.3,164.9L140.3,164.9z"/>
		</g>
	</g>
</g>
</svg>
